<svg xmlns="http://www.w3.org/2000/svg" version="1.1" xmlns:xlink="http://www.w3.org/1999/xlink" xmlns:svgjs="http://svgjs.dev/svgjs" width="1000" height="1000"><style>
    #light-icon {
      display: inline;
    }
    #dark-icon {
      display: none;
    }

    @media (prefers-color-scheme: dark) {
      #light-icon {
        display: none;
      }
      #dark-icon {
        display: inline;
      }
    }
  </style><g id="light-icon"><svg xmlns="http://www.w3.org/2000/svg" version="1.1" xmlns:xlink="http://www.w3.org/1999/xlink" xmlns:svgjs="http://svgjs.dev/svgjs" width="1000" height="1000"><g><g transform="matrix(41.666666666666664,0,0,41.666666666666664,0,0)"><svg xmlns="http://www.w3.org/2000/svg" version="1.1" xmlns:xlink="http://www.w3.org/1999/xlink" xmlns:svgjs="http://svgjs.dev/svgjs" width="24" height="24"><svg xmlns="http://www.w3.org/2000/svg" width="24" height="24" viewBox="0 0 24 24" fill="none" stroke="currentColor" stroke-width="2" stroke-linecap="round" stroke-linejoin="round" class="lucide lucide-volleyball"><path d="M11.1 7.1a16.55 16.55 0 0 1 10.9 4"></path><path d="M12 12a12.6 12.6 0 0 1-8.7 5"></path><path d="M16.8 13.6a16.55 16.55 0 0 1-9 7.5"></path><path d="M20.7 17a12.8 12.8 0 0 0-8.7-5 13.3 13.3 0 0 1 0-10"></path><path d="M6.3 3.8a16.55 16.55 0 0 0 1.9 11.5"></path><circle cx="12" cy="12" r="10"></circle></svg></svg></g></g></svg></g><g id="dark-icon"><svg xmlns="http://www.w3.org/2000/svg" version="1.1" xmlns:xlink="http://www.w3.org/1999/xlink" xmlns:svgjs="http://svgjs.dev/svgjs" width="1000" height="1000"><g clip-path="url(#SvgjsClipPath1181)"><rect width="1000" height="1000" fill="#ffffff"></rect><g transform="matrix(29.166666666666668,0,0,29.166666666666668,150,150)"><svg xmlns="http://www.w3.org/2000/svg" version="1.1" xmlns:xlink="http://www.w3.org/1999/xlink" xmlns:svgjs="http://svgjs.dev/svgjs" width="24" height="24"><svg xmlns="http://www.w3.org/2000/svg" width="24" height="24" viewBox="0 0 24 24" fill="none" stroke="currentColor" stroke-width="2" stroke-linecap="round" stroke-linejoin="round" class="lucide lucide-volleyball"><path d="M11.1 7.1a16.55 16.55 0 0 1 10.9 4"></path><path d="M12 12a12.6 12.6 0 0 1-8.7 5"></path><path d="M16.8 13.6a16.55 16.55 0 0 1-9 7.5"></path><path d="M20.7 17a12.8 12.8 0 0 0-8.7-5 13.3 13.3 0 0 1 0-10"></path><path d="M6.3 3.8a16.55 16.55 0 0 0 1.9 11.5"></path><circle cx="12" cy="12" r="10"></circle></svg></svg></g></g><defs><clipPath id="SvgjsClipPath1181"><rect width="1000" height="1000" x="0" y="0" rx="350" ry="350"></rect></clipPath></defs></svg></g></svg>